<svg height="512pt" viewBox="0 0 512 512" width="512pt" xmlns="http://www.w3.org/2000/svg" xmlns:xlink="http://www.w3.org/1999/xlink"><linearGradient id="a" gradientUnits="userSpaceOnUse" x1="0" x2="512" y1="256" y2="256"><stop offset="0" stop-color="#00f2fe"/><stop offset=".0208" stop-color="#03effe"/><stop offset=".2931" stop-color="#24d2fe"/><stop offset=".5538" stop-color="#3cbdfe"/><stop offset=".7956" stop-color="#4ab0fe"/><stop offset="1" stop-color="#4facfe"/></linearGradient><path d="m245.652344 111.300781c-12.214844-7.089843-26.8125-7.113281-39.050782-.066406-12.273437 7.070313-19.601562 19.761719-19.601562 33.945313v99.640624c0 14.1875 7.328125 26.875 19.605469 33.945313 6.097656 3.511719 12.78125 5.269531 19.46875 5.269531 6.726562 0 13.453125-1.777344 19.578125-5.335937l85.855468-49.816407c12.207032-7.082031 19.492188-19.75 19.492188-33.882812s-7.285156-26.800781-19.492188-33.882812zm-18.652344 131.976563v-96.554688l83.199219 48.277344zm245-34.277344v-129c0-22.054688-17.945312-40-40-40h-352c-22.054688 0-40 17.945312-40 40v230c0 22.054688 17.945312 40 40 40h352c22.054688 0 40-17.945312 40-40 0-11.046875 8.953125-20 20-20s20 8.953125 20 20c0 44.113281-35.886719 80-80 80h-352c-44.113281 0-80-35.886719-80-80v-230c0-44.113281 35.886719-80 80-80h352c44.113281 0 80 35.886719 80 80v129c0 11.046875-8.953125 20-20 20s-20-8.953125-20-20zm40 262c0 11.046875-8.953125 20-20 20h-257c-11.046875 0-20-8.953125-20-20s8.953125-20 20-20h257c11.046875 0 20 8.953125 20 20zm-337 1c0 22.089844-17.910156 40-40 40-15.214844 0-28.441406-8.496094-35.207031-21h-79.792969c-11.046875 0-20-8.953125-20-20s8.953125-20 20-20h80.957031c7.046875-11.398438 19.65625-19 34.042969-19 22.089844 0 40 17.910156 40 40zm0 0" fill="url(#a)"/></svg>