<?xml version="1.0" encoding="iso-8859-1"?>
<!-- Generator: Adobe Illustrator 16.0.0, SVG Export Plug-In . SVG Version: 6.00 Build 0)  -->
<!DOCTYPE svg PUBLIC "-//W3C//DTD SVG 1.1//EN" "http://www.w3.org/Graphics/SVG/1.1/DTD/svg11.dtd">
<svg version="1.1" id="Capa_1" xmlns="http://www.w3.org/2000/svg" xmlns:xlink="http://www.w3.org/1999/xlink" x="0px" y="0px"
	 width="377.343px" height="377.343px" viewBox="0 0 377.343 377.343" style="enable-background:new 0 0 377.343 377.343;"
	 xml:space="preserve">
<g>
	<path d="M301.689,53.505H75.651c-10.876,0-19.725,8.843-19.725,19.718v230.911c0,10.866,8.843,19.715,19.725,19.715h226.039
		c10.873,0,19.722-8.843,19.722-19.715V73.223C321.406,62.348,312.562,53.505,301.689,53.505z M162.48,227.897h-38.95L77.65,75.229
		h38.95c5.316,17.879,9.609,32.314,12.881,43.298c3.262,10.976,7.773,25.893,13.527,44.747
		c5.659-18.854,10.125-33.781,13.398-44.796c3.273-11.018,7.604-25.429,12.999-43.248h38.834L162.48,227.897z M338.677,0H38.662
		C19.094,0,3.226,15.869,3.226,35.439v306.464c0,19.573,15.869,35.439,35.437,35.439h300.02c19.568,0,35.436-15.866,35.436-35.439
		V35.439C374.117,15.869,358.25,0,338.677,0z M335.381,304.122c0,18.572-15.113,33.691-33.691,33.691H75.651
		c-18.576,0-33.695-15.114-33.695-33.691V73.223c0-18.569,15.114-33.688,33.695-33.688h226.039
		c18.572,0,33.691,15.114,33.691,33.688V304.122z"/>
</g>
<g>
</g>
<g>
</g>
<g>
</g>
<g>
</g>
<g>
</g>
<g>
</g>
<g>
</g>
<g>
</g>
<g>
</g>
<g>
</g>
<g>
</g>
<g>
</g>
<g>
</g>
<g>
</g>
<g>
</g>
</svg>
