<?xml version="1.0" encoding="iso-8859-1"?>
<!-- Generator: Adobe Illustrator 19.0.0, SVG Export Plug-In . SVG Version: 6.00 Build 0)  -->
<svg version="1.1" id="Capa_1" xmlns="http://www.w3.org/2000/svg" xmlns:xlink="http://www.w3.org/1999/xlink" x="0px" y="0px"
	 viewBox="0 0 512 512" style="enable-background:new 0 0 512 512;" xml:space="preserve">
<g>
	<g>
		<g>
			<path fill="#1fc6d8" d="M197.564,150.635c-3.438,1.875-5.563,5.458-5.563,9.365v192c0,3.906,2.125,7.49,5.563,9.365
				c1.583,0.865,3.354,1.302,5.104,1.302c2,0,4.021-0.563,5.771-1.698l149.333-96c3.042-1.958,4.896-5.344,4.896-8.969
				s-1.854-7.01-4.896-8.969l-149.333-96C205.168,148.885,200.939,148.781,197.564,150.635z"/>
			<path fill="#1fc6d8" d="M325.853,9.698c0,0-1.639-0.504-1.969-0.594C301.895,3.063,279.051,0,255.999,0c-4.281,0-8.156,2.563-9.823,6.51
				c-1.667,3.948-0.813,8.51,2.167,11.583l56.448,58.219c2.042,2.104,4.813,3.24,7.656,3.24c1.052,0,2.104-0.156,3.135-0.469
				c3.833-1.188,6.688-4.417,7.375-8.365l2.814-16.167c103.535,35.969,167.703,148.236,134.966,261.552
				c-20.951,72.523-80.965,127.24-153.852,146.889l-5.523,1.49c-5.689,1.534-9.056,7.389-7.522,13.077l5.557,20.598
				c1.534,5.689,7.391,9.056,13.078,7.52l2.617-0.706c95.628-25.816,172.496-101.413,191.893-198.546
				C533.609,173.117,451.431,45.359,325.853,9.698z"/>
			<path fill="#1fc6d8" d="M207.21,435.688c-2.042-2.104-4.813-3.24-7.656-3.24c-1.052,0-2.104,0.156-3.135,0.469
				c-3.833,1.188-6.688,4.417-7.375,8.365l-2.814,16.167C82.694,421.479,18.526,309.212,51.263,195.895
				c20.951-72.523,80.965-127.238,153.852-146.889l5.523-1.488c5.689-1.534,9.056-7.389,7.522-13.078l-5.557-20.598
				c-1.535-5.688-7.391-9.055-13.078-7.52l-2.617,0.707C101.28,32.845,24.412,108.44,5.013,205.574
				c-26.621,133.309,55.555,261.066,181.134,296.728c0,0,1.639,0.504,1.969,0.594c21.99,6.042,44.833,9.104,67.885,9.104
				c4.281,0,8.156-2.563,9.823-6.51c1.667-3.948,0.813-8.51-2.167-11.583L207.21,435.688z"/>
		</g>
	</g>
</g>
<g>
</g>
<g>
</g>
<g>
</g>
<g>
</g>
<g>
</g>
<g>
</g>
<g>
</g>
<g>
</g>
<g>
</g>
<g>
</g>
<g>
</g>
<g>
</g>
<g>
</g>
<g>
</g>
<g>
</g>
</svg>
